<svg id="Слой_1" data-name="Слой 1" xmlns="http://www.w3.org/2000/svg" viewBox="0 0 150 33.46"><path d="M228.3 472.63h-16.16v-26.94h15.54v4.94h-9.47v6H227v4.93h-8.81v6.16h10.11zm10.39-9.28v9.28h-6.07v-26.94h9.51q10.19 0 10.18 8.58a8.23 8.23 0 01-2.92 6.57 11.59 11.59 0 01-7.81 2.51zm0-13v8.4h2.39q4.84 0 4.84-4.25t-4.84-4.15zM255 471.6v-6a11.65 11.65 0 003.55 2.05 11.29 11.29 0 003.87.69 8.47 8.47 0 002-.21 5 5 0 001.43-.57 2.51 2.51 0 00.85-.87 2.12 2.12 0 00.28-1.08 2.37 2.37 0 00-.45-1.41 4.87 4.87 0 00-1.23-1.14 13.6 13.6 0 00-1.85-1q-1.07-.48-2.31-1a12 12 0 01-4.71-3.21 7.06 7.06 0 01-1.55-4.59 7.37 7.37 0 01.85-3.62 7.18 7.18 0 012.3-2.48 10.26 10.26 0 013.37-1.44 17.18 17.18 0 014.06-.46 24.33 24.33 0 013.73.25 15 15 0 013 .78v5.62a9.6 9.6 0 00-1.48-.83 11.87 11.87 0 00-1.64-.59 13.23 13.23 0 00-1.68-.35 12.89 12.89 0 00-1.59-.11 8.34 8.34 0 00-1.88.2 4.79 4.79 0 00-1.43.55 2.66 2.66 0 00-.9.86 2 2 0 00-.32 1.11 2.13 2.13 0 00.36 1.22 4.2 4.2 0 001 1 10.92 10.92 0 001.6.94c.63.31 1.33.62 2.12 1a23.21 23.21 0 012.91 1.44 10.11 10.11 0 012.2 1.72 6.39 6.39 0 011.41 2.18 8.75 8.75 0 01-.36 6.65 6.91 6.91 0 01-2.32 2.48 10.09 10.09 0 01-3.41 1.37 20.17 20.17 0 01-4.11.41 22.92 22.92 0 01-4.22-.38 12.67 12.67 0 01-3.45-1.18zm28.89 1.03h-6.07v-18.75h6.07zm22.17 0H290v-26.94h6.07v22h10zm14.06.47a12.56 12.56 0 01-9.44-3.77 13.51 13.51 0 01-3.64-9.81 14.49 14.49 0 013.7-10.34 12.82 12.82 0 019.81-3.94 12.27 12.27 0 019.33 3.77 14 14 0 013.56 10 14.26 14.26 0 01-3.7 10.24 12.67 12.67 0 01-9.62 3.85zm.26-22.64a6.09 6.09 0 00-5.07 2.4 9.93 9.93 0 00-1.88 6.34 9.75 9.75 0 001.88 6.33 6 6 0 004.92 2.33 6.09 6.09 0 005-2.27 9.71 9.71 0 001.84-6.28 10.51 10.51 0 00-1.79-6.52 5.83 5.83 0 00-4.9-2.33zm41.76 22.17H356l-11.09-16.93a24.8 24.8 0 01-1.35-2.23h-.07c.1.95.15 2.4.15 4.36v14.8h-5.73v-26.94h6.54l10.69 16.4c.48.74.93 1.47 1.35 2.2h.07a28.89 28.89 0 01-.15-3.7v-14.9h5.73z" transform="translate(-212.14 -445.24)"/><path d="M283.89 451.75h-6.07v-6.07h6.07zm78.25 26.95h-150v-6.07h150z" transform="translate(-212.14 -445.24)" fill="#97ca2b"/></svg>