<svg width="20" height="20" fill="none" xmlns="http://www.w3.org/2000/svg"><path fill="#fff" d="M0 0h20v20H0z"/><path d="M7.5 9.584a4.171 4.171 0 01-4.167-4.167A4.171 4.171 0 017.5 1.251a4.171 4.171 0 014.166 4.166A4.171 4.171 0 017.5 9.584zm0-7.083a2.92 2.92 0 00-2.917 2.916A2.92 2.92 0 007.5 8.334a2.92 2.92 0 002.916-2.917A2.92 2.92 0 007.5 2.501zm6.874 16.249H.625A.625.625 0 010 18.125v-2.917a3.963 3.963 0 013.958-3.958h7.083A3.963 3.963 0 0115 15.208v2.917c0 .345-.28.625-.625.625zM1.25 17.5h12.5v-2.292a2.711 2.711 0 00-2.71-2.708H3.958a2.711 2.711 0 00-2.708 2.708V17.5zm18.124-7.708h-7.083a.625.625 0 010-1.25h7.083a.625.625 0 010 1.25z" fill="#000"/><path d="M16.041 13.125a.625.625 0 01-.442-1.067l2.892-2.892L15.6 6.275a.625.625 0 01.884-.885l3.333 3.334a.625.625 0 010 .884l-3.333 3.333a.62.62 0 01-.443.184z" fill="#000"/></svg>