<svg id="Слой_1" data-name="Слой 1" xmlns="http://www.w3.org/2000/svg" viewBox="0 0 150 33.46"><defs><style>.cls-1{fill:#97ca2b;}</style></defs><title>logo-7</title><path d="M228.3,472.63H212.14V445.69h15.54v4.94h-9.47v6H227v4.93h-8.81v6.16H228.3Z" transform="translate(-212.14 -445.24)"/><path d="M238.69,463.35v9.28h-6.07V445.69h9.51q10.19,0,10.18,8.58a8.23,8.23,0,0,1-2.92,6.57,11.59,11.59,0,0,1-7.81,2.51Zm0-13v8.4h2.39q4.84,0,4.84-4.25t-4.84-4.15Z" transform="translate(-212.14 -445.24)"/><path d="M255,471.6v-6a11.65,11.65,0,0,0,3.55,2.05,11.29,11.29,0,0,0,3.87.69,8.47,8.47,0,0,0,2-.21,5,5,0,0,0,1.43-.57,2.51,2.51,0,0,0,.85-.87,2.12,2.12,0,0,0,.28-1.08,2.37,2.37,0,0,0-.45-1.41,4.87,4.87,0,0,0-1.23-1.14,13.6,13.6,0,0,0-1.85-1q-1.07-.48-2.31-1a12,12,0,0,1-4.71-3.21,7.06,7.06,0,0,1-1.55-4.59,7.37,7.37,0,0,1,.85-3.62,7.18,7.18,0,0,1,2.3-2.48,10.26,10.26,0,0,1,3.37-1.44,17.18,17.18,0,0,1,4.06-.46,24.33,24.33,0,0,1,3.73.25,15,15,0,0,1,3,.78v5.62a9.6,9.6,0,0,0-1.48-.83,11.87,11.87,0,0,0-1.64-.59,13.23,13.23,0,0,0-1.68-.35,12.89,12.89,0,0,0-1.59-.11,8.34,8.34,0,0,0-1.88.2,4.79,4.79,0,0,0-1.43.55,2.66,2.66,0,0,0-.9.86,2,2,0,0,0-.32,1.11,2.13,2.13,0,0,0,.36,1.22,4.2,4.2,0,0,0,1,1,10.92,10.92,0,0,0,1.6.94c.63.31,1.33.62,2.12,1a23.21,23.21,0,0,1,2.91,1.44,10.11,10.11,0,0,1,2.2,1.72,6.39,6.39,0,0,1,1.41,2.18,8.75,8.75,0,0,1-.36,6.65,6.91,6.91,0,0,1-2.32,2.48,10.09,10.09,0,0,1-3.41,1.37,20.17,20.17,0,0,1-4.11.41,22.92,22.92,0,0,1-4.22-.38A12.67,12.67,0,0,1,255,471.6Z" transform="translate(-212.14 -445.24)"/><path d="M283.89,472.63h-6.07V453.88h6.07Z" transform="translate(-212.14 -445.24)"/><path d="M306.06,472.63H290V445.69h6.07v22h10Z" transform="translate(-212.14 -445.24)"/><path d="M320.12,473.1a12.56,12.56,0,0,1-9.44-3.77,13.51,13.51,0,0,1-3.64-9.81,14.49,14.49,0,0,1,3.7-10.34,12.82,12.82,0,0,1,9.81-3.94,12.27,12.27,0,0,1,9.33,3.77,14,14,0,0,1,3.56,10,14.26,14.26,0,0,1-3.7,10.24A12.67,12.67,0,0,1,320.12,473.1Zm.26-22.64a6.09,6.09,0,0,0-5.07,2.4,9.93,9.93,0,0,0-1.88,6.34,9.75,9.75,0,0,0,1.88,6.33,6,6,0,0,0,4.92,2.33,6.09,6.09,0,0,0,5-2.27,9.71,9.71,0,0,0,1.84-6.28,10.51,10.51,0,0,0-1.79-6.52A5.83,5.83,0,0,0,320.38,450.46Z" transform="translate(-212.14 -445.24)"/><path d="M362.14,472.63H356L344.91,455.7a24.8,24.8,0,0,1-1.35-2.23h-.07c.1.95.15,2.4.15,4.36v14.8h-5.73V445.69h6.54l10.69,16.4c.48.74.93,1.47,1.35,2.2h.07a28.89,28.89,0,0,1-.15-3.7v-14.9h5.73Z" transform="translate(-212.14 -445.24)"/><path class="cls-1" d="M283.89,451.75h-6.07v-6.07h6.07Z" transform="translate(-212.14 -445.24)"/><path class="cls-1" d="M362.14,478.7h-150v-6.07h150Z" transform="translate(-212.14 -445.24)"/></svg>